<svg width="33" height="33" viewBox="0 0 33 33" fill="none" xmlns="http://www.w3.org/2000/svg">
<path d="M4.60156 22.2723L22.2414 4.63101ZM25.6198 15.202L22.5948 18.227ZM20.0139 20.7763L18.6678 22.1224Z" fill="#3A3F87"/>
<path d="M4.60156 22.2723L22.2414 4.63101M25.6198 15.202L22.5948 18.227M20.0139 20.7763L18.6678 22.1224" stroke="#3A3F87" stroke-width="1.5" stroke-linecap="round"/>
<path d="M4.36563 22.1939C3.85342 21.6819 3.44711 21.0739 3.1699 20.4049C2.89268 19.7358 2.75 19.0186 2.75 18.2944C2.75 17.5701 2.89268 16.853 3.1699 16.1839C3.44711 15.5148 3.85342 14.9069 4.36563 14.3949L14.3949 4.36563C14.9069 3.85342 15.5148 3.44711 16.1839 3.1699C16.853 2.89268 17.5701 2.75 18.2944 2.75C19.0186 2.75 19.7358 2.89268 20.4049 3.1699C21.0739 3.44711 21.6819 3.85342 22.1939 4.36563L28.6344 10.8061C29.1466 11.3182 29.5529 11.9261 29.8301 12.5952C30.1073 13.2642 30.25 13.9814 30.25 14.7056C30.25 15.4299 30.1073 16.147 29.8301 16.8161C29.5529 17.4852 29.1466 18.0931 28.6344 18.6051L18.6051 28.6344C18.0931 29.1466 17.4852 29.5529 16.8161 29.8301C16.147 30.1073 15.4299 30.25 14.7056 30.25C13.9814 30.25 13.2642 30.1073 12.5952 29.8301C11.9261 29.5529 11.3182 29.1466 10.8061 28.6344L4.36563 22.1939Z" stroke="#3A3F87" stroke-width="1.5"/>
<path d="M5.5 30.25H27.5" stroke="#3A3F87" stroke-width="1.5" stroke-linecap="round"/>
</svg>
